<?xml version="1.0" encoding="UTF-8" standalone="no"?>
<svg
   xmlns:dc="http://purl.org/dc/elements/1.1/"
   xmlns:cc="http://creativecommons.org/ns#"
   xmlns:rdf="http://www.w3.org/1999/02/22-rdf-syntax-ns#"
   xmlns:svg="http://www.w3.org/2000/svg"
   xmlns="http://www.w3.org/2000/svg"
   xmlns:sodipodi="http://sodipodi.sourceforge.net/DTD/sodipodi-0.dtd"
   xmlns:inkscape="http://www.inkscape.org/namespaces/inkscape"
   aria-hidden="true"
   focusable="false"
   data-prefix="fas"
   data-icon="child"
   class="svg-inline--fa fa-child fa-w-12"
   role="img"
   viewBox="0 0 384 512"
   version="1.1"
   id="svg2069"
   sodipodi:docname="child-solid.svg"
   inkscape:version="1.0.1 (3bc2e813f5, 2020-09-07)">
  <metadata
     id="metadata2075">
    <rdf:RDF>
      <cc:Work
         rdf:about="">
        <dc:format>image/svg+xml</dc:format>
        <dc:type
           rdf:resource="http://purl.org/dc/dcmitype/StillImage" />
        <dc:title></dc:title>
      </cc:Work>
    </rdf:RDF>
  </metadata>
  <defs
     id="defs2073" />
  <sodipodi:namedview
     pagecolor="#ffffff"
     bordercolor="#666666"
     borderopacity="1"
     objecttolerance="10"
     gridtolerance="10"
     guidetolerance="10"
     inkscape:pageopacity="0"
     inkscape:pageshadow="2"
     inkscape:window-width="1298"
     inkscape:window-height="745"
     id="namedview2071"
     showgrid="false"
     inkscape:zoom="1.1289062"
     inkscape:cx="21.480969"
     inkscape:cy="256"
     inkscape:window-x="-8"
     inkscape:window-y="-8"
     inkscape:window-maximized="1"
     inkscape:current-layer="svg2069" />
  <path
     fill="currentColor"
     d="M120 72c0-39.765 32.235-72 72-72s72 32.235 72 72c0 39.764-32.235 72-72 72s-72-32.236-72-72zm254.627 1.373c-12.496-12.497-32.758-12.497-45.254 0L242.745 160H141.254L54.627 73.373c-12.496-12.497-32.758-12.497-45.254 0-12.497 12.497-12.497 32.758 0 45.255L104 213.254V480c0 17.673 14.327 32 32 32h16c17.673 0 32-14.327 32-32V368h16v112c0 17.673 14.327 32 32 32h16c17.673 0 32-14.327 32-32V213.254l94.627-94.627c12.497-12.497 12.497-32.757 0-45.254z"
     id="path2067" />
  <path
     style="fill:#0065fc;stroke-width:0.885813"
     d="m 131.52367,511.09805 c -9.95002,-1.45079 -20.11546,-9.1129 -24.40293,-18.39351 l -1.93043,-4.17859 -0.23229,-137.74394 -0.23228,-137.74395 -49.507285,-49.60553 C 23.739809,131.89141 5.0647155,112.52874 3.9359829,110.26195 -2.3487791,97.640498 0.36599416,82.972997 10.791833,73.220845 c 6.924589,-6.477142 11.220937,-8.11212 21.318894,-8.112915 13.64849,-0.0011 11.431812,-1.754256 63.338838,50.09493 l 45.179655,45.12932 h 51.35461 51.35461 l 45.63874,-45.48043 c 35.72506,-35.601147 46.60082,-45.940569 50.0678,-47.598713 3.7009,-1.770021 5.81258,-2.120429 12.84429,-2.131361 10.09777,-0.0157 14.3845,1.612858 21.31889,8.099169 10.42585,9.752152 13.14062,24.419653 6.85585,37.041105 -1.12873,2.26679 -19.80382,21.62946 -51.28247,53.17058 l -49.50728,49.60553 -0.23228,137.74395 -0.23229,137.74394 -2.47518,5.04036 c -3.20299,6.52247 -10.5589,13.28549 -17.12034,15.74045 -3.32243,1.24308 -8.10038,2.03648 -14.3915,2.3898 -22.06669,1.23927 -34.65928,-4.56256 -41.63893,-19.18445 l -2.32561,-4.87197 -0.25091,-60.01384 -0.25092,-60.01384 H 192 183.6437 l -0.25092,60.01384 -0.25091,60.01384 -2.32561,4.87197 c -6.53132,13.68267 -18.10503,19.65535 -37.53598,19.37069 -3.89758,-0.0571 -9.18806,-0.41024 -11.75661,-0.78475 z"
     id="path2077" />
  <path
     style="fill:#0065fc;stroke-width:0.885813"
     d="m 179.7056,142.56368 c -26.98348,-4.8245 -49.6392,-25.80407 -56.91588,-52.70504 -2.47627,-9.154462 -2.70942,-25.587311 -0.48161,-33.945232 3.90181,-14.638173 9.05146,-23.605233 19.64345,-34.205076 12.34676,-12.3559159 26.61176,-19.283277 42.59424,-20.6845912 22.77792,-1.9971261 41.60516,4.7753243 57.50264,20.6845912 10.592,10.599843 15.74164,19.566903 19.64345,34.205076 2.22781,8.357921 1.99467,24.79077 -0.48161,33.945232 -3.84522,14.21526 -12.4429,27.7116 -23.51325,36.91022 -6.97708,5.79744 -19.41134,12.34755 -27.53786,14.5064 -6.46391,1.71717 -23.92404,2.45587 -30.45357,1.28842 z"
     id="path2640" />
</svg>
