<?xml version="1.0" encoding="UTF-8" standalone="no"?>
<svg
   xmlns:dc="http://purl.org/dc/elements/1.1/"
   xmlns:cc="http://creativecommons.org/ns#"
   xmlns:rdf="http://www.w3.org/1999/02/22-rdf-syntax-ns#"
   xmlns:svg="http://www.w3.org/2000/svg"
   xmlns="http://www.w3.org/2000/svg"
   xmlns:sodipodi="http://sodipodi.sourceforge.net/DTD/sodipodi-0.dtd"
   xmlns:inkscape="http://www.inkscape.org/namespaces/inkscape"
   aria-hidden="true"
   focusable="false"
   data-prefix="fas"
   data-icon="dog"
   class="svg-inline--fa fa-dog fa-w-18"
   role="img"
   viewBox="0 0 576 512"
   version="1.1"
   id="svg885"
   sodipodi:docname="dog-solid.svg"
   inkscape:version="1.0.1 (3bc2e813f5, 2020-09-07)">
  <metadata
     id="metadata891">
    <rdf:RDF>
      <cc:Work
         rdf:about="">
        <dc:format>image/svg+xml</dc:format>
        <dc:type
           rdf:resource="http://purl.org/dc/dcmitype/StillImage" />
        <dc:title></dc:title>
      </cc:Work>
    </rdf:RDF>
  </metadata>
  <defs
     id="defs889" />
  <sodipodi:namedview
     pagecolor="#ffffff"
     bordercolor="#666666"
     borderopacity="1"
     objecttolerance="10"
     gridtolerance="10"
     guidetolerance="10"
     inkscape:pageopacity="0"
     inkscape:pageshadow="2"
     inkscape:window-width="1298"
     inkscape:window-height="745"
     id="namedview887"
     showgrid="false"
     inkscape:zoom="1.1289062"
     inkscape:cx="117.48097"
     inkscape:cy="256"
     inkscape:window-x="-8"
     inkscape:window-y="-8"
     inkscape:window-maximized="1"
     inkscape:current-layer="svg885" />
  <path
     fill="currentColor"
     d="M298.06,224,448,277.55V496a16,16,0,0,1-16,16H368a16,16,0,0,1-16-16V384H192V496a16,16,0,0,1-16,16H112a16,16,0,0,1-16-16V282.09C58.84,268.84,32,233.66,32,192a32,32,0,0,1,64,0,32.06,32.06,0,0,0,32,32ZM544,112v32a64,64,0,0,1-64,64H448v35.58L320,197.87V48c0-14.25,17.22-21.39,27.31-11.31L374.59,64h53.63c10.91,0,23.75,7.92,28.62,17.69L464,96h64A16,16,0,0,1,544,112Zm-112,0a16,16,0,1,0-16,16A16,16,0,0,0,432,112Z"
     id="path883" />
  <path
     style="fill:#000080;stroke-width:0.885813"
     d="m 387.21107,221.41777 c -32.64221,-11.66156 -61.0436,-21.83849 -63.11418,-22.6154 l -3.76471,-1.41257 0.0195,-75.88521 c 0.0184,-71.883404 0.1057,-76.072066 1.65478,-79.428465 2.88139,-6.243141 7.60649,-9.301038 14.37206,-9.301038 1.94127,0 4.80528,0.645914 6.36448,1.435364 1.5592,0.789451 9.41207,7.949355 17.45082,15.910898 l 14.61592,14.475532 30.11765,0.255193 30.11764,0.255192 5.76032,2.72991 c 8.021,3.801276 13.09304,9.222487 18.52829,19.803817 l 4.54792,8.853861 34.81445,0.250843 34.81445,0.250843 3.34814,2.554607 c 6.12695,4.674833 6.65908,7.088123 6.6637,30.220483 0.004,21.89357 -0.73588,27.83549 -4.68632,37.61578 -6.9911,17.30824 -21.12096,30.64717 -39.12659,36.93646 -6.91209,2.41437 -7.637,2.48286 -29.45328,2.78299 l -22.36679,0.30771 v 17.64911 c 0,9.70702 -0.29896,17.62838 -0.66436,17.60303 -0.36539,-0.0253 -27.37162,-9.58738 -60.01384,-21.24894 z m 38.44015,-96.33986 c 4.70551,-3.80296 6.53263,-7.46203 6.48302,-12.98315 C 432.0488,102.5863 425.25359,95.66782 416,95.66782 c -6.27552,0 -11.77056,3.435003 -14.80991,9.25781 -1.71667,3.2888 -1.69718,11.00666 0.0362,14.33932 4.65008,8.94038 16.93707,11.86459 24.42492,5.81296 z"
     id="path893" />
  <path
     style="fill:#000080;stroke-width:0.885813"
     d="m 110.83737,511.44823 c -0.97439,-0.22166 -2.63779,-0.58669 -3.69643,-0.81118 -3.02309,-0.64105 -7.473737,-4.86702 -9.254456,-8.78726 -1.548882,-3.40985 -1.627046,-8.72401 -1.645576,-111.87773 l -0.01946,-108.29782 -3.764706,-1.50631 C 80.804066,275.50557 70.403788,268.42936 60.300501,258.28926 45.080273,243.01358 36.130251,225.0127 33.297662,203.97933 c -2.14324,-15.9146 0.645559,-26.54944 9.015054,-34.37812 12.894626,-12.06142 31.277062,-12.00556 43.588978,0.13244 5.805877,5.72386 8.458619,11.72489 9.459521,21.39929 0.456911,4.41636 1.662756,10.25348 2.679656,12.97139 2.422209,6.47393 8.966169,13.58324 15.594479,16.94172 l 5.17434,2.62177 90.35294,0.4729 90.35294,0.4729 73.9654,26.65603 73.9654,26.65604 0.22495,109.17864 c 0.15008,72.84127 -0.0787,110.30665 -0.68766,112.56782 -1.09064,4.05033 -4.46918,8.28053 -8.27949,10.36659 -2.48687,1.36149 -6.38806,1.51835 -37.76299,1.51835 -19.24429,0 -36.0551,-0.29884 -37.35734,-0.6641 -3.55589,-0.99736 -7.87013,-5.02058 -9.69736,-9.0432 -1.52333,-3.35361 -1.62734,-7.2053 -1.64557,-60.9363 l -0.0195,-57.3564 h -80.16609 -80.16609 l -0.005,56.47059 c -0.004,36.11211 -0.33478,57.65823 -0.91986,59.76488 -1.1049,3.97839 -4.49682,8.18576 -8.2603,10.24618 -2.46711,1.35068 -6.49059,1.5346 -36.43428,1.66542 -18.51349,0.0809 -34.45813,-0.0343 -35.43252,-0.25593 z"
     id="path895" />
  <path
     style="fill:#000080;stroke-width:0.885813"
     d="m 107.13351,510.13892 c -3.36784,-0.97458 -8.73127,-6.94433 -9.444933,-10.51265 -0.280639,-1.40319 -0.78984,-51.14043 -1.131558,-110.5272 l -0.621305,-107.97594 -6.722182,-3.02062 c -9.792556,-4.4003 -18.9739,-10.86884 -27.584341,-19.43403 -9.370806,-9.32156 -14.782718,-16.86902 -19.792587,-27.60278 -6.214158,-13.31396 -8.014472,-21.2168 -8.041786,-35.30099 -0.02197,-11.32839 0.10751,-12.22464 2.457408,-17.00993 2.829281,-5.7615 9.134638,-11.8764 15.430508,-14.96442 3.469898,-1.70193 5.67331,-2.08157 12.206539,-2.10314 6.810078,-0.0225 8.682577,0.31265 12.844291,2.29879 5.861052,2.79714 11.820264,8.56876 14.699028,14.2363 1.206931,2.37613 2.700512,7.88398 3.483024,12.84429 0.753493,4.77635 1.991667,10.59622 2.751498,12.93305 1.728456,5.31581 9.375396,13.77258 15.681146,17.34182 l 4.57562,2.58994 90.79584,0.61619 90.79585,0.61619 7.08651,2.48131 c 7.78249,2.725 136.34834,49.09558 138.86128,50.08388 1.47998,0.58206 1.54834,6.34275 1.32872,111.97509 l -0.23153,111.36147 -2.49496,3.27093 c -5.00243,6.5582 -3.46125,6.30326 -39.98336,6.61415 -38.40493,0.32692 -41.09457,0.12118 -45.16751,-3.4549 -5.90232,-5.18231 -5.64802,-2.52952 -6.34328,-66.17286 l -0.63106,-57.76577 H 272.0526 192.16482 l -0.63807,57.67113 c -0.35094,31.71912 -0.98415,58.58141 -1.40715,59.69399 -1.38527,3.64354 -6.25394,8.35109 -9.59732,9.2797 -4.08271,1.13398 -69.44632,1.07788 -73.38877,-0.063 z"
     id="path897" />
  <path
     style="fill:#0065fc;stroke-width:0.885813;fill-opacity:1"
     d="m 107.13351,510.13892 c -3.27504,-0.94773 -8.719188,-6.90745 -9.471801,-10.36881 -0.28534,-1.31232 -0.796424,-51.01717 -1.135741,-110.45523 l -0.616941,-108.06921 -7.542635,-3.54325 c -19.802675,-9.30257 -36.787207,-26.20968 -46.273224,-46.06228 -6.432985,-13.46313 -8.284128,-21.46 -8.304578,-35.87543 -0.01606,-11.32204 0.115057,-12.22733 2.463636,-17.00993 2.829281,-5.7615 9.134638,-11.8764 15.430508,-14.96442 3.469898,-1.70193 5.67331,-2.08157 12.206539,-2.10314 6.772371,-0.0224 8.705621,0.31957 12.844291,2.27177 5.861434,2.76481 11.784641,8.5022 14.683533,14.22289 1.170693,2.31025 2.727512,7.90907 3.459599,12.44181 0.732086,4.53275 1.71457,9.57045 2.183297,11.1949 2.196521,7.61237 9.451437,15.8824 17.462167,19.90548 l 4.28753,2.15325 90.58167,0.63824 90.58167,0.63823 71.07923,25.6154 c 39.09358,14.08848 72.17996,26.06181 73.52529,26.60741 l 2.44605,0.99201 -0.23152,111.34846 -0.23153,111.34847 -2.49496,3.27093 c -5.00243,6.5582 -3.46125,6.30326 -39.98336,6.61415 -38.83071,0.33054 -41.06073,0.1509 -45.39783,-3.65712 -5.80416,-5.09613 -5.60254,-2.94371 -6.20359,-66.2261 l -0.54623,-57.51031 h -79.87755 -79.87755 l -0.59716,57.54426 c -0.32844,31.64934 -0.96496,58.51163 -1.41448,59.69398 -1.42879,3.75799 -6.25533,8.46496 -9.64556,9.40658 -4.08271,1.13398 -69.44632,1.07788 -73.38877,-0.063 z"
     id="path899" />
  <path
     style="fill:#0065fc;fill-opacity:1;stroke-width:0.885813"
     d="m 438.58824,239.27114 c -3.65398,-1.35004 -31.67129,-11.37378 -62.26069,-22.275 l -55.61709,-19.82038 0.25377,-76.2211 c 0.24274,-72.910907 0.3271,-76.36879 1.94238,-79.621943 3.72538,-7.502875 13.82136,-10.261434 20.72698,-5.663307 1.80014,1.198629 9.58167,8.280697 17.29228,15.737928 l 14.0193,13.558603 30.27136,0.390731 30.27136,0.39073 6.02975,3.137997 c 7.43123,3.867361 12.25877,9.204231 17.75481,19.6281 l 4.09656,7.76956 9.44984,0.578194 c 5.1974,0.318006 20.97106,0.578193 35.05255,0.578193 h 25.60273 l 3.44272,2.766654 c 1.89351,1.52165 3.92625,4.013 4.51722,5.53633 1.53077,3.94579 2.12193,36.5751 0.83752,46.22687 -3.07182,23.08338 -17.96517,41.88108 -40.41323,51.00769 -6.97101,2.83417 -7.16601,2.85911 -27.39469,3.50399 -11.20554,0.35723 -21.86851,0.68321 -23.6955,0.7244 l -3.3218,0.0749 v 17.27335 c 0,13.25514 -0.25758,17.26159 -1.10727,17.22274 -0.609,-0.0278 -4.09689,-1.15518 -7.75086,-2.50523 z M 425.9518,125.22404 c 4.30616,-3.4405 6.43264,-7.70034 6.43437,-12.88956 0.002,-5.14938 -1.18868,-8.40346 -4.26259,-11.65232 -3.47614,-3.673974 -6.5943,-5.01434 -11.66514,-5.01434 -10.15531,0 -16.84598,6.50859 -16.84598,16.38754 0,4.64293 1.21166,8.11851 3.82371,10.96807 5.54114,6.04498 16.37827,7.10418 22.51563,2.20061 z"
     id="path1462" />
</svg>
