<?xml version="1.0" encoding="UTF-8" standalone="no"?>
<svg
   xmlns:dc="http://purl.org/dc/elements/1.1/"
   xmlns:cc="http://creativecommons.org/ns#"
   xmlns:rdf="http://www.w3.org/1999/02/22-rdf-syntax-ns#"
   xmlns:svg="http://www.w3.org/2000/svg"
   xmlns="http://www.w3.org/2000/svg"
   xmlns:sodipodi="http://sodipodi.sourceforge.net/DTD/sodipodi-0.dtd"
   xmlns:inkscape="http://www.inkscape.org/namespaces/inkscape"
   aria-hidden="true"
   focusable="false"
   data-prefix="fas"
   data-icon="heart"
   class="svg-inline--fa fa-heart fa-w-16"
   role="img"
   viewBox="0 0 512 512"
   version="1.1"
   id="svg22"
   sodipodi:docname="heart-solid.svg"
   inkscape:version="1.0.1 (3bc2e813f5, 2020-09-07)">
  <metadata
     id="metadata28">
    <rdf:RDF>
      <cc:Work
         rdf:about="">
        <dc:format>image/svg+xml</dc:format>
        <dc:type
           rdf:resource="http://purl.org/dc/dcmitype/StillImage" />
        <dc:title></dc:title>
      </cc:Work>
    </rdf:RDF>
  </metadata>
  <defs
     id="defs26" />
  <sodipodi:namedview
     pagecolor="#ffffff"
     bordercolor="#666666"
     borderopacity="1"
     objecttolerance="10"
     gridtolerance="10"
     guidetolerance="10"
     inkscape:pageopacity="0"
     inkscape:pageshadow="2"
     inkscape:window-width="1298"
     inkscape:window-height="745"
     id="namedview24"
     showgrid="false"
     inkscape:zoom="1.0917969"
     inkscape:cx="79.685152"
     inkscape:cy="256"
     inkscape:window-x="-8"
     inkscape:window-y="-8"
     inkscape:window-maximized="1"
     inkscape:current-layer="svg22" />
  <path
     fill="currentColor"
     d="M462.3 62.6C407.5 15.9 326 24.3 275.7 76.2L256 96.5l-19.7-20.3C186.1 24.3 104.5 15.9 49.7 62.6c-62.8 53.6-66.1 149.8-9.9 207.9l193.5 199.8c12.5 12.9 32.8 12.9 45.3 0l193.5-199.8c56.3-58.1 53-154.3-9.8-207.9z"
     id="path20" />
  <path
     style="fill:#0065fc;stroke-width:0.915921;fill-opacity:1"
     d="m 247.67027,478.18836 c -2.06257,-0.64564 -5.39548,-2.09864 -7.40647,-3.22888 C 234.9928,471.99702 37.09472,267.42375 28.707936,256.26775 14.789749,237.75394 5.5116675,215.18919 1.8589127,190.96959 0.2053883,180.00589 0.58965749,159.10422 2.6675418,146.98558 10.842532,99.307397 43.243963,58.292382 85.913646,41.609364 129.33695,24.631695 178.42162,31.881996 218.34794,61.171244 c 4.08466,2.996436 14.11439,12.200402 22.2883,20.453259 8.1739,8.252855 15.11804,15.005193 15.43142,15.005193 0.31338,0 7.22708,-6.737876 15.36376,-14.973058 17.23798,-17.446641 26.87745,-24.895542 42.71036,-33.004427 13.09875,-6.708581 23.7774,-10.553979 37.57199,-13.529725 8.10638,-1.748696 12.35099,-2.07285 27.01968,-2.063451 15.52175,0.0099 18.50098,0.269289 27.56664,2.399705 26.32652,6.186695 47.50525,18.28726 66.16075,37.801252 19.25189,20.13783 32.14904,46.038798 36.94888,74.203338 1.58827,9.31969 1.80161,13.56773 1.40292,27.9356 -0.68618,24.72869 -4.01238,38.17244 -14.8432,59.99284 -7.09089,14.28576 -14.44906,24.41283 -27.7752,38.22717 -107.7976,111.74663 -191.59052,197.7907 -194.89521,200.13118 -7.49042,5.30497 -17.38563,7.01857 -25.62876,4.43824 z"
     id="path30" />
  <path
     style="fill:#0065fc;fill-opacity:1;stroke-width:0.915921"
     d="m 245.36364,476.67219 c -4.08963,-1.57305 -8.90529,-6.06311 -38.01438,-35.44422 C 147.87157,381.19449 38.983607,267.80665 29.708059,256.24561 16.137926,239.33181 5.4170619,213.19808 2.1783351,189.13775 0.6949714,178.11791 1.6967278,153.51998 4.0881134,142.24349 9.2654369,117.83005 20.857123,95.092262 37.719564,76.273386 57.904523,53.746505 83.379854,39.696949 112.96164,34.777645 c 13.68207,-2.27526 37.19072,-1.487946 50.53031,1.692281 12.21183,2.911363 21.07613,6.127538 32.0959,11.645146 15.73433,7.878201 24.81685,14.737345 42.68674,32.237189 9.1419,8.95259 17.13228,16.277435 17.75639,16.277435 0.62411,0 8.41549,-7.109839 17.31418,-15.799642 8.8987,-8.689804 19.50848,-18.174312 23.57731,-21.076686 14.31622,-10.212056 32.91146,-18.693021 50.90414,-23.21651 12.63633,-3.17686 38.74042,-4.098099 51.77991,-1.827364 53.84303,9.376391 96.08975,51.440315 108.47102,108.001656 1.75134,8.00067 2.03369,11.94479 1.97937,27.65021 -0.0951,27.50776 -2.61982,39.32582 -13.12059,61.41773 -5.57535,11.72963 -11.71421,21.44942 -19.31722,30.58536 -6.92354,8.31948 -123.24287,128.59096 -177.36098,183.38713 -26.05201,26.37843 -29.10988,29.18004 -33.73987,30.91234 -6.50425,2.43355 -14.84086,2.43681 -21.15461,0.008 z"
     id="path855" />
  <path
     style="fill:#0065fc;fill-opacity:1;stroke-width:0.915921"
     d="m 245.40618,476.68806 c -4.03109,-1.55096 -9.02493,-6.20462 -38.03516,-35.44423 C 161.37446,394.88359 72.379643,302.72145 41.085394,269.0401 34.877659,262.35884 27.807593,254.05726 25.374137,250.59214 16.21288,237.54699 7.6173202,216.96481 3.5345435,198.29696 0.94729571,186.46718 1.1829012,155.62627 3.9591846,142.71115 14.472919,93.801882 48.230482,54.627195 92.50805,39.952729 c 16.42643,-5.444045 26.66763,-6.849165 45.64143,-6.262122 22.52745,0.696992 37.70619,4.527686 57.84753,14.599124 14.91404,7.457586 24.2262,14.50787 42.37504,32.082362 9.23391,8.941682 17.22453,16.257603 17.75694,16.257603 0.53242,0 7.62495,-6.505127 15.7612,-14.455837 8.13625,-7.95071 16.854,-16.140411 19.37278,-18.199336 15.15195,-12.385631 38.47706,-23.415905 59.99284,-28.370178 9.68571,-2.230251 38.92048,-2.731169 48.96856,-0.839043 54.75335,10.310445 96.66689,52.885469 108.27471,109.983488 1.30442,6.41634 1.64832,12.11219 1.57407,26.07053 -0.14306,26.89414 -2.76647,39.22284 -12.86325,60.45081 -7.23366,15.20836 -13.29827,24.32429 -24.06896,36.17889 -9.37681,10.32042 -122.1755,126.8826 -164.41767,169.9034 -34.39809,35.03212 -36.84922,37.30764 -42.43987,39.39938 -6.24472,2.33644 -14.70606,2.31061 -20.87722,-0.0638 z"
     id="path857" />
  <path
     style="fill:#0065fc;fill-opacity:1;stroke-width:0.915921;opacity:1"
     d="m 245.48268,476.70178 c -3.72882,-1.45548 -7.97316,-5.1763 -23.19779,-20.33641 C 182.95283,417.19999 62.861188,292.91829 34.869961,262.41145 20.378125,246.61721 9.45884,224.57608 3.9606126,200.01935 2.1030438,191.7229 1.8357944,188.11955 1.8628618,171.73524 1.8864267,157.4711 2.2875302,150.98585 3.5319361,144.74879 13.4665,94.955984 47.502407,54.868494 92.50805,39.952729 c 16.448,-5.451193 26.66936,-6.85126 45.64143,-6.251718 22.23619,0.702692 38.27432,4.728543 57.66952,14.476058 14.79726,7.436708 24.13421,14.473953 42.57798,32.090955 9.42125,8.99892 17.41801,16.361672 17.77059,16.361672 0.35258,0 8.33008,-7.423173 17.72778,-16.495939 19.11834,-18.457295 28.42061,-25.287534 45.37048,-33.313504 20.428,-9.6729 32.21836,-12.436289 55.80394,-13.079158 15.75612,-0.429462 18.95085,-0.261737 27.11499,1.423551 26.82855,5.538103 49.18763,17.616274 68.14507,36.811342 18.88159,19.11826 31.97966,43.941122 38.14023,72.281612 1.35445,6.23091 1.6735,11.44279 1.59797,26.10376 -0.14373,27.89759 -2.70343,39.84221 -13.22141,61.69675 -6.22854,12.94181 -11.76458,21.62982 -19.63315,30.8113 -8.10798,9.46082 -140.0676,145.85554 -189.71423,196.09042 -13.7024,13.86477 -16.07648,15.87995 -20.77152,17.63149 -6.71354,2.50455 -15.00118,2.54764 -21.24504,0.11046 z"
     id="path859" />
  <path
     style="opacity:1;fill:#0065fc;fill-opacity:1;stroke-width:0.915921"
     d="m 247.75078,477.71309 c -1.26266,-0.38408 -3.52956,-1.34786 -5.03756,-2.14173 C 235.23586,471.63501 39.828464,270.16059 27.440124,253.61446 15.323857,237.43173 5.363589,212.36754 2.2108779,190.12718 0.77367248,179.98861 1.5981399,153.59387 3.6579676,143.79964 12.387807,102.2903 38.531229,66.467184 73.778545,47.716666 83.961907,42.299422 101.17948,36.607198 113.08609,34.721375 c 11.81078,-1.870645 37.04217,-1.347656 47.6581,0.987843 17.92778,3.944107 37.38125,12.346866 52.4013,22.634296 4.39967,3.013395 15.66666,12.757497 25.03775,21.653561 9.37109,8.896063 17.34867,16.288416 17.72796,16.427451 0.37929,0.139034 8.45469,-7.196811 17.94532,-16.30188 22.80105,-21.874733 37.23519,-31.409757 59.53883,-39.330636 15.01133,-5.331099 22.16468,-6.543365 41.67442,-7.062493 15.73042,-0.418564 18.96416,-0.247411 27.11499,1.435129 26.98513,5.570426 49.07717,17.504331 68.14507,36.811316 18.70523,18.939753 31.76254,43.543068 38.1178,71.823678 1.31183,5.83757 1.63642,11.2381 1.59648,26.56172 -0.0545,20.89695 -1.19148,30.04844 -5.34851,43.0483 -3.50653,10.96565 -15.18769,33.68595 -21.92112,42.63745 -6.29707,8.3714 -27.684,30.79358 -119.20589,124.97615 -91.31297,93.96756 -90.63277,93.29616 -96.84087,95.58836 -5.4141,1.99905 -14.32575,2.5163 -18.97694,1.10147 z"
     id="path861" />
  <path
     style="opacity:1;fill:#0065fc;fill-opacity:1;stroke-width:0.915921"
     d="m 247.75078,477.71309 c -1.26266,-0.38408 -3.52956,-1.34805 -5.03756,-2.14216 C 235.10546,471.56472 40.020489,270.42845 27.476877,253.65822 15.640112,237.833 6.2438834,214.83125 2.6212966,192.81232 0.78622363,181.65832 1.3531165,154.67804 3.6511206,143.79964 12.734035,100.80252 40.528439,63.801751 76.937388,46.238707 87.369436,41.206468 97.049105,37.852442 107.90317,35.509002 c 10.76085,-2.323319 40.9501,-2.300018 51.92509,0.04008 18.26297,3.894041 37.35933,12.009805 52.97226,22.512698 4.56847,3.073229 15.44523,12.446238 25.63019,22.086711 l 17.69368,16.747785 4.28843,-4.075839 c 2.35864,-2.241711 10.16084,-9.693717 17.33823,-16.560013 19.34257,-18.504192 36.07702,-28.877855 58.88809,-36.504643 15.37424,-5.140315 26.12464,-6.558076 46.21596,-6.094954 18.04394,0.415928 27.53283,2.230164 42.40656,8.107961 36.84312,14.559659 66.17975,46.596131 78.77459,86.024162 5.33777,16.70984 6.14147,22.44218 6.03256,43.02637 -0.14819,28.00469 -2.52622,38.99938 -13.26204,61.31605 -6.53369,13.58165 -13.11683,23.68612 -21.51533,33.02384 -11.02608,12.25915 -143.80203,149.36079 -185.9465,192.00441 -15.57914,15.76366 -17.8481,17.71622 -22.61722,19.46333 -5.41263,1.98285 -14.34783,2.49425 -18.97694,1.08614 z"
     id="path863" />
  <path
     style="opacity:1;fill:#0065fc;fill-opacity:1;stroke-width:0.915921"
     d="M 244.55098,476.38401 C 240.95125,474.68069 232.42297,466.59866 204.69253,438.6112 132.00971,365.2547 35.954945,264.98629 27.332729,253.47113 17.867534,240.83016 9.7629745,222.93235 4.837051,203.79249 -0.01385369,184.94412 0.27756889,155.83056 5.5155176,136.01266 12.1475,110.9204 24.753877,88.813104 42.597259,70.9839 60.804632,52.790995 82.537172,40.985635 107.90317,35.509002 c 10.76085,-2.323319 40.9501,-2.300018 51.92509,0.04008 18.2751,3.896625 37.38504,12.020606 52.97226,22.519446 4.47338,3.013071 15.67305,12.638297 25.66648,22.058325 l 17.72999,16.712652 5.62601,-5.428647 c 29.7753,-28.730741 37.10675,-34.532515 54.95618,-43.489775 11.92461,-5.984049 28.0581,-11.317484 39.91655,-13.195679 14.46975,-2.291785 40.39815,-1.409347 52.38112,1.78272 33.34733,8.883178 60.03203,28.292371 78.88031,57.37381 7.06188,10.895946 11.24867,19.593716 15.37769,31.946166 6.21924,18.60555 6.74898,22.08832 6.70405,44.0753 -0.059,28.86607 -2.33864,39.58755 -13.23213,62.23197 -6.36098,13.22265 -13.02187,23.52536 -21.05444,32.56588 -9.7369,10.95871 -142.25969,147.80591 -185.49673,191.54974 -16.47346,16.66657 -18.73694,18.62713 -23.52788,20.37925 -7.41168,2.71058 -16.13255,2.61374 -22.17674,-0.24623 z"
     id="path865" />
  <path
     style="opacity:1;fill:#b3b3b3;fill-opacity:1;stroke-width:0.915921"
     d="m 244.55098,476.3896 c -3.61525,-1.70623 -12.39423,-10.046 -41.69044,-39.60464 C 131.91523,365.20413 35.958296,264.99077 27.332729,253.47113 17.957656,240.95052 9.9442298,223.32701 4.7438094,203.79249 2.0172712,193.55069 1.9388875,192.68945 1.9095721,172.65116 1.8862319,156.69721 2.2359822,150.26889 3.4581983,144.18781 9.7579131,112.84386 27.636469,82.446769 51.254501,62.924604 66.59229,50.246713 82.267765,42.204484 102.02502,36.877025 c 10.34668,-2.789936 11.17644,-2.868848 30.78357,-2.927579 16.42378,-0.0492 21.5855,0.254929 27.911,1.6445 17.18703,3.775603 37.20889,12.350271 51.91898,22.235089 4.10971,2.761627 14.97266,12.106325 24.13988,20.765999 9.16721,8.659672 17.34533,16.223787 18.17359,16.809144 1.27961,0.904343 4.10594,-1.399301 18.80694,-15.32891 9.51556,-9.016258 20.85009,-18.81993 25.18784,-21.785938 16.32916,-11.165341 39.16452,-20.575502 56.8886,-23.443068 11.27935,-1.824878 34.77757,-1.857246 45.07178,-0.06209 47.12619,8.218119 87.24448,44.272151 103.14755,92.697978 5.30942,16.16751 6.11866,21.85563 6.03514,42.42124 -0.11473,28.25459 -2.55807,39.94684 -12.80182,61.26141 -6.7406,14.02542 -13.35619,24.329 -21.53268,33.53644 -10.22442,11.51362 -144.22575,149.91198 -185.40834,191.49222 -16.54062,16.70033 -18.83288,18.68359 -23.61933,20.43535 -7.40317,2.70945 -16.1284,2.61533 -22.17674,-0.23922 z"
     id="path867" />
  <path
     style="opacity:1;fill:#b3b3b3;fill-opacity:1;stroke-width:0.915921"
     d="m 250.80343,477.60982 c -2.10248,-0.41435 -5.19371,-1.43828 -6.86941,-2.27539 C 235.58599,471.16411 48.204234,278.45876 28.295209,253.56924 22.09407,245.8168 12.508975,226.72249 8.293451,213.72408 2.638281,196.28656 2.0244774,191.45004 2.5143593,168.18715 2.9255729,148.65997 3.1137371,146.85512 5.7730544,136.93023 15.019339,102.42199 35.295075,73.500329 63.537312,54.534294 70.742886,49.695401 85.555354,42.629671 95.080268,39.487917 c 14.328642,-4.726248 20.113492,-5.396928 42.198502,-4.892382 22.69525,0.518488 28.38551,1.612943 46.82141,9.005553 20.1833,8.093299 30.0047,14.833353 54.4598,37.373657 8.79512,8.106466 16.65158,14.73903 17.45881,14.73903 0.80725,0 7.42176,-5.461181 14.69893,-12.135957 25.70658,-23.578635 29.9751,-26.803352 46.09329,-34.82184 12.01429,-5.976872 24.14831,-10.292141 35.37138,-12.579257 11.98534,-2.442459 39.9372,-2.667337 50.97439,-0.410099 31.04996,6.350091 59.31381,24.604606 79.34509,51.2459 10.33718,13.748288 20.99299,37.016098 25.37724,55.413238 1.61297,6.76837 2.19834,33.36747 1.01201,45.9853 -1.77498,18.87854 -6.62806,33.46027 -17.69287,53.16057 -6.54726,11.65702 -13.4908,20.5237 -27.79603,35.49456 -23.57562,24.67262 -88.57606,91.84163 -121.30024,125.34711 -17.88632,18.31335 -38.70305,39.71657 -46.2594,47.56271 -17.42308,18.09124 -25.79896,25.29724 -30.91274,26.59507 -6.17011,1.56591 -10.01642,1.84874 -14.12641,1.03874 z"
     id="path869" />
  <path
     style="opacity:1;fill:#0065fc;fill-opacity:1;stroke-width:0.915921"
     d="m 250.80343,477.60982 c -2.10248,-0.41435 -5.19371,-1.46216 -6.86941,-2.32844 C 235.02827,470.67734 48.802316,279.20646 28.295209,253.56924 22.172405,245.91473 12.586171,226.86843 8.3129138,213.86762 2.6900631,196.76087 2.0232599,191.50785 2.5143593,168.18715 2.9255729,148.65997 3.1137371,146.85512 5.7730544,136.93023 19.831881,84.461006 58.97697,46.081444 108.96525,35.756082 c 8.10846,-1.674848 35.89039,-1.932401 46.90407,-0.434826 14.10947,1.91852 39.13949,11.779948 53.41869,21.046106 7.69895,4.99605 17.98695,13.87077 42.79641,36.917392 2.49502,2.317739 3.27749,2.595915 5.03757,1.790929 1.14605,-0.524157 7.44187,-5.867128 13.99071,-11.873268 19.1544,-17.567091 26.52629,-23.63551 34.57915,-28.464988 14.69548,-8.813202 31.41637,-15.488786 46.49054,-18.560706 11.51355,-2.346313 39.48617,-2.653595 50.45826,-0.554289 37.50107,7.175141 72.61482,33.890652 90.90172,69.160528 11.46938,22.12095 15.18167,35.41018 15.91205,56.96177 1.14532,33.79607 -3.47331,54.0269 -18.23838,79.88876 -6.75764,11.8364 -13.59935,20.58867 -27.34003,34.97474 -22.31908,23.3674 -86.92177,90.16814 -120.46654,124.56529 -18.1771,18.639 -39.40698,40.44679 -47.1775,48.46174 -18.02703,18.59411 -26.22294,25.64677 -31.30213,26.93582 -6.17011,1.56591 -10.01642,1.84874 -14.12641,1.03874 z"
     id="path871" />
</svg>
