<?xml version="1.0" encoding="UTF-8" standalone="no"?>
<svg
   xmlns:dc="http://purl.org/dc/elements/1.1/"
   xmlns:cc="http://creativecommons.org/ns#"
   xmlns:rdf="http://www.w3.org/1999/02/22-rdf-syntax-ns#"
   xmlns:svg="http://www.w3.org/2000/svg"
   xmlns="http://www.w3.org/2000/svg"
   xmlns:sodipodi="http://sodipodi.sourceforge.net/DTD/sodipodi-0.dtd"
   xmlns:inkscape="http://www.inkscape.org/namespaces/inkscape"
   aria-hidden="true"
   focusable="false"
   data-prefix="fas"
   data-icon="info-circle"
   class="svg-inline--fa fa-info-circle fa-w-16"
   role="img"
   viewBox="0 0 512 512"
   version="1.1"
   id="svg1476"
   sodipodi:docname="info-circle-solid.svg"
   inkscape:version="1.0.1 (3bc2e813f5, 2020-09-07)">
  <metadata
     id="metadata1482">
    <rdf:RDF>
      <cc:Work
         rdf:about="">
        <dc:format>image/svg+xml</dc:format>
        <dc:type
           rdf:resource="http://purl.org/dc/dcmitype/StillImage" />
        <dc:title></dc:title>
      </cc:Work>
    </rdf:RDF>
  </metadata>
  <defs
     id="defs1480" />
  <sodipodi:namedview
     pagecolor="#ffffff"
     bordercolor="#666666"
     borderopacity="1"
     objecttolerance="10"
     gridtolerance="10"
     guidetolerance="10"
     inkscape:pageopacity="0"
     inkscape:pageshadow="2"
     inkscape:window-width="1298"
     inkscape:window-height="745"
     id="namedview1478"
     showgrid="false"
     inkscape:zoom="1.1289062"
     inkscape:cx="85.480969"
     inkscape:cy="256"
     inkscape:window-x="-8"
     inkscape:window-y="-8"
     inkscape:window-maximized="1"
     inkscape:current-layer="svg1476" />
  <path
     fill="currentColor"
     d="M256 8C119.043 8 8 119.083 8 256c0 136.997 111.043 248 248 248s248-111.003 248-248C504 119.083 392.957 8 256 8zm0 110c23.196 0 42 18.804 42 42s-18.804 42-42 42-42-18.804-42-42 18.804-42 42-42zm56 254c0 6.627-5.373 12-12 12h-88c-6.627 0-12-5.373-12-12v-24c0-6.627 5.373-12 12-12h12v-64h-12c-6.627 0-12-5.373-12-12v-24c0-6.627 5.373-12 12-12h64c6.627 0 12 5.373 12 12v100h12c6.627 0 12 5.373 12 12v24z"
     id="path1474" />
  <path
     style="fill:#0065fc;stroke-width:0.885813;fill-opacity:1"
     d="m 232.08304,502.57385 c -10.71178,-1.1146 -32.22739,-5.28707 -43.08246,-8.35488 C 144.07132,481.52125 102.50076,455.55729 71.593665,420.88946 39.159765,384.50904 18.54389,340.46709 10.951055,291.3379 c -2.8478885,-18.42717 -2.8478885,-52.24863 0,-70.6758 C 23.418292,139.99325 72.01538,72.251739 143.66534,35.666115 166.66108,23.924119 189.16345,16.438172 215.42616,11.793174 228.68313,9.4484595 230.83501,9.3171404 256,9.3171404 c 25.16499,0 27.31687,0.1313191 40.57384,2.4760336 49.10227,8.684554 91.65082,29.701257 128.0493,63.249501 34.05878,31.391755 59.4658,74.117215 71.03138,119.449205 5.87592,23.03108 7.36487,35.46605 7.36487,61.50812 0,26.04207 -1.48895,38.47704 -7.36487,61.50812 -22.75561,89.19203 -94.6544,159.20012 -184.71187,179.85458 -18.28977,4.19471 -26.9982,5.09983 -51.3994,5.34223 -13.15432,0.13069 -25.51142,0.0717 -27.46021,-0.13108 z m 73.91078,-119.74956 c 5.51982,-2.96031 6.25531,-5.66379 6.25531,-22.99287 0,-17.08245 -0.55529,-19.30914 -5.57933,-22.37247 -2.24074,-1.36626 -4.46251,-1.72984 -10.58676,-1.73245 l -7.75086,-0.003 -0.004,-51.59861 c -0.004,-49.582 -0.0708,-51.70926 -1.72934,-54.42938 -3.77476,-6.19079 -2.62089,-6.02737 -42.55715,-6.02737 -39.93633,0 -38.78426,-0.16316 -42.55886,6.02737 -1.53724,2.52113 -1.72603,4.52634 -1.72603,18.33249 0,13.80615 0.18879,15.81136 1.72603,18.3325 2.81213,4.61204 5.42065,5.76018 14.22759,6.26233 l 7.95671,0.45367 v 31.32351 31.32349 l -7.75087,0.004 c -6.12424,0.003 -8.34601,0.36619 -10.58675,1.73245 -5.02404,3.06333 -5.57934,5.29003 -5.57934,22.37247 0,17.32908 0.7355,20.03256 6.25532,22.99287 2.81453,1.50909 6.19022,1.61839 49.99405,1.61839 43.80383,0 47.17952,-0.1093 49.99382,-1.61862 z m -31.59222,-184.723 c 6.77411,-3.26129 14.28465,-9.99058 18.07033,-16.19064 5.56068,-9.10711 7.25249,-24.09696 3.92597,-34.78509 -4.24697,-13.64554 -16.60453,-25.21334 -30.31006,-28.37297 -4.98974,-1.15032 -15.18594,-1.15032 -20.17568,0 -13.70553,3.15963 -26.06309,14.72743 -30.31006,28.37297 -2.26356,7.27282 -2.23715,18.29796 0.0616,25.73615 7.51658,24.32146 35.58911,36.38418 58.73788,25.23958 z"
     id="path1484" />
  <path
     style="fill:#0065fc;fill-opacity:1;stroke-width:0.885813"
     d="m 206.66405,381.82444 c -5.44189,-3.31812 -5.99577,-5.1211 -6.32669,-20.59465 -0.2743,-12.82581 -0.14144,-14.32194 1.58932,-17.89722 2.54438,-5.25598 5.82069,-6.72357 15.00996,-6.72357 h 7.17409 v -32.20932 -32.20931 l -7.89463,-0.45013 c -6.32939,-0.36089 -8.45677,-0.85042 -10.72997,-2.46908 -4.55499,-3.24344 -5.29253,-6.23157 -5.29098,-21.43648 0.002,-14.93367 0.7786,-17.90973 5.59991,-21.44645 2.43149,-1.78364 3.48935,-1.8346 38.08997,-1.8346 39.17915,0 38.04737,-0.15103 41.94961,5.59788 1.50566,2.21818 1.6285,5.79936 1.86664,54.41596 l 0.25491,52.04153 h 7.14063 c 9.15317,0 12.43488,1.47329 14.97649,6.72357 1.73077,3.57528 1.86363,5.07141 1.58934,17.89722 -0.33093,15.47355 -0.88481,17.27653 -6.32669,20.59465 -2.71094,1.65297 -4.79937,1.72603 -49.33596,1.72603 -44.53658,0 -46.62502,-0.0731 -49.33595,-1.72603 z"
     id="path2047" />
  <path
     style="fill:#ffffff;fill-opacity:1;stroke-width:0.885813"
     d="m 250.68512,200.97943 c -18.10528,-2.23403 -32.8004,-16.77243 -35.66597,-35.28559 -2.71247,-17.52404 7.05554,-35.21706 23.87714,-43.24923 6.74498,-3.22067 7.16999,-3.30274 17.10371,-3.30274 9.93372,0 10.35873,0.0821 17.10371,3.30274 8.50307,4.06014 15.94727,11.19964 19.846,19.03368 14.7129,29.56381 -9.4299,63.55265 -42.26459,59.50114 z"
     id="path2049" />
  <path
     style="fill:#ffffff;fill-opacity:1;stroke-width:0.885813"
     d="M 220.29972,500.42826 C 188.73042,494.87 166.76364,487.71661 142.65325,475.14298 79.69595,442.31059 34.167623,384.97299 16.825924,316.6782 12.190766,298.4241 10.702132,288.78701 9.8017907,271.20552 7.782749,231.7785 13.046492,198.78251 26.782499,164.76125 50.456421,106.12581 93.605622,60.094152 150.14533,33.157519 170.05446,23.672417 186.24659,18.324051 210.82353,13.11512 l 13.7301,-2.91001 H 256 287.44637 l 13.7301,2.902744 c 48.32724,10.217083 87.30371,29.810056 121.79931,61.226951 41.44769,37.748525 70.71599,93.671735 77.8656,148.778515 1.93271,14.89668 1.93271,50.87668 0,65.77336 -1.55008,11.94747 -6.77528,34.13433 -10.82179,45.95069 -28.49224,83.2012 -99.33519,145.6429 -185.29987,163.32518 -15.27571,3.14211 -27.81297,4.08906 -53.14879,4.01439 -17.16519,-0.0506 -23.70293,-0.41617 -31.27121,-1.74868 z m 86.19061,-117.5369 c 4.74048,-2.36891 5.63561,-5.19075 6.04411,-19.05373 0.48056,-16.30851 -0.19769,-21.29162 -3.38363,-24.85933 -2.46032,-2.75514 -2.69177,-2.81837 -11.40405,-3.11544 l -8.89277,-0.30322 -0.2609,-51.95976 c -0.24911,-49.60978 -0.33866,-52.08825 -1.97989,-54.80109 -3.05314,-5.04661 -3.75313,-5.13097 -42.57168,-5.13097 -38.81854,0 -39.51853,0.0843 -42.57167,5.13097 -1.53866,2.54328 -1.71898,4.5769 -1.71898,19.38539 0,15.33774 0.13376,16.72639 1.83458,19.04498 2.53028,3.4493 7.13769,5.59828 12.00625,5.59992 2.25328,7.5e-4 5.34256,0.2505 6.86505,0.555 l 2.76816,0.55364 v 30.80972 30.80973 l -8.93222,0.30446 c -8.75611,0.29845 -8.98173,0.3599 -11.4435,3.11667 -3.18594,3.56771 -3.86419,8.55082 -3.38363,24.85933 0.4085,13.86298 1.30363,16.68482 6.04411,19.05373 2.83479,1.41659 7.14437,1.54879 50.49033,1.54879 43.34596,0 47.65554,-0.1322 50.49033,-1.54879 z M 265.6615,201.48725 c 8.16788,-1.9253 15.15773,-5.99545 21.32369,-12.41666 6.50132,-6.77046 9.45313,-12.87352 10.84493,-22.4227 1.32343,-9.08001 0.1596,-17.97746 -3.31729,-25.36069 -3.51135,-7.45644 -12.64694,-16.44435 -20.49035,-20.15913 -5.90673,-2.79753 -6.37415,-2.87201 -18.02248,-2.87201 -11.64833,0 -12.11575,0.0745 -18.02248,2.87201 -7.72713,3.65971 -16.986,12.71405 -20.37711,19.92702 -7.76851,16.52372 -4.53677,36.32895 7.94929,48.71596 10.94905,10.8622 25.5911,15.13898 40.1118,11.7162 z"
     id="path2051" />
  <path
     style="fill:#0065fc;fill-opacity:1;stroke-width:0.885813"
     d="m 250.68512,200.97943 c -18.10528,-2.23403 -32.8004,-16.77243 -35.66597,-35.28559 -2.71247,-17.52404 7.05554,-35.21706 23.87714,-43.24923 6.74498,-3.22067 7.16999,-3.30274 17.10371,-3.30274 9.93372,0 10.35873,0.0821 17.10371,3.30274 8.50307,4.06014 15.94727,11.19964 19.846,19.03368 14.7129,29.56381 -9.4299,63.55265 -42.26459,59.50114 z"
     id="path2053" />
  <path
     style="fill:#0065fc;fill-opacity:1;stroke-width:0.885813"
     d="m 248.12364,200.12148 c -12.01887,-2.36036 -23.39251,-11.56513 -29.1254,-23.57141 -3.19645,-6.69426 -3.30274,-7.2318 -3.30274,-16.70365 0,-9.57399 0.0744,-9.9374 3.42162,-16.71305 4.26471,-8.63292 11.2391,-15.71674 19.69629,-20.00534 6.01824,-3.05183 6.28722,-3.10035 17.18659,-3.10035 10.83512,0 11.20205,0.0649 17.10372,3.026 11.39501,5.7173 19.92752,16.33812 22.75389,28.32285 5.05611,21.43954 -10.43954,44.58215 -32.67439,48.7989 -5.48999,1.04116 -9.55758,1.02658 -15.05958,-0.054 z"
     id="path2055" />
</svg>
