<?xml version="1.0" encoding="UTF-8" standalone="no"?>
<svg
   xmlns:dc="http://purl.org/dc/elements/1.1/"
   xmlns:cc="http://creativecommons.org/ns#"
   xmlns:rdf="http://www.w3.org/1999/02/22-rdf-syntax-ns#"
   xmlns:svg="http://www.w3.org/2000/svg"
   xmlns="http://www.w3.org/2000/svg"
   xmlns:sodipodi="http://sodipodi.sourceforge.net/DTD/sodipodi-0.dtd"
   xmlns:inkscape="http://www.inkscape.org/namespaces/inkscape"
   aria-hidden="true"
   focusable="false"
   data-prefix="fas"
   data-icon="money-bill-wave"
   class="svg-inline--fa fa-money-bill-wave fa-w-20"
   role="img"
   viewBox="0 0 640 512"
   version="1.1"
   id="svg3237"
   sodipodi:docname="money-bill-wave-solid.svg"
   inkscape:version="1.0.1 (3bc2e813f5, 2020-09-07)">
  <metadata
     id="metadata3243">
    <rdf:RDF>
      <cc:Work
         rdf:about="">
        <dc:format>image/svg+xml</dc:format>
        <dc:type
           rdf:resource="http://purl.org/dc/dcmitype/StillImage" />
        <dc:title></dc:title>
      </cc:Work>
    </rdf:RDF>
  </metadata>
  <defs
     id="defs3241" />
  <sodipodi:namedview
     pagecolor="#ffffff"
     bordercolor="#666666"
     borderopacity="1"
     objecttolerance="10"
     gridtolerance="10"
     guidetolerance="10"
     inkscape:pageopacity="0"
     inkscape:pageshadow="2"
     inkscape:window-width="1298"
     inkscape:window-height="745"
     id="namedview3239"
     showgrid="false"
     inkscape:zoom="1.1289062"
     inkscape:cx="149.48097"
     inkscape:cy="256"
     inkscape:window-x="-8"
     inkscape:window-y="-8"
     inkscape:window-maximized="1"
     inkscape:current-layer="svg3237" />
  <path
     fill="currentColor"
     d="M621.16 54.46C582.37 38.19 543.55 32 504.75 32c-123.17-.01-246.33 62.34-369.5 62.34-30.89 0-61.76-3.92-92.65-13.72-3.47-1.1-6.95-1.62-10.35-1.62C15.04 79 0 92.32 0 110.81v317.26c0 12.63 7.23 24.6 18.84 29.46C57.63 473.81 96.45 480 135.25 480c123.17 0 246.34-62.35 369.51-62.35 30.89 0 61.76 3.92 92.65 13.72 3.47 1.1 6.95 1.62 10.35 1.62 17.21 0 32.25-13.32 32.25-31.81V83.93c-.01-12.64-7.24-24.6-18.85-29.47zM48 132.22c20.12 5.04 41.12 7.57 62.72 8.93C104.84 170.54 79 192.69 48 192.69v-60.47zm0 285v-47.78c34.37 0 62.18 27.27 63.71 61.4-22.53-1.81-43.59-6.31-63.71-13.62zM320 352c-44.19 0-80-42.99-80-96 0-53.02 35.82-96 80-96s80 42.98 80 96c0 53.03-35.83 96-80 96zm272 27.78c-17.52-4.39-35.71-6.85-54.32-8.44 5.87-26.08 27.5-45.88 54.32-49.28v57.72zm0-236.11c-30.89-3.91-54.86-29.7-55.81-61.55 19.54 2.17 38.09 6.23 55.81 12.66v48.89z"
     id="path3235" />
  <path
     style="fill:#0065fc;stroke-width:0.885813;fill-opacity:1"
     d="M 108.73356,478.60756 C 76.074863,475.66238 40.668048,467.01613 18.234862,456.50803 9.6750239,452.49845 3.3322852,444.1936 1.2174425,434.2263 0.5009292,430.84936 0.22145329,384.48293 0.22145329,268.9868 0.22145329,90.935894 -0.16081105,102.41473 6.0722593,93.295712 9.7124168,87.97014 16.679142,82.852604 22.794336,81.012201 c 7.056899,-2.123815 13.956078,-1.628408 25.719282,1.846815 27.947541,8.256589 52.389892,11.430804 87.680152,11.386616 50.81179,-0.06362 86.03675,-5.946664 185.13495,-30.920025 95.00684,-23.942315 134.8212,-30.564063 183.63303,-30.541037 36.76677,0.01734 68.01987,4.966586 98.7441,15.637122 21.981,7.634006 27.69422,11.532742 32.8886,22.44336 l 2.74119,5.757785 0.23531,163.356923 c 0.26127,181.38415 0.63428,169.56085 -5.63858,178.72453 -3.64667,5.32723 -10.61415,10.4439 -16.72671,12.28351 -7.10609,2.13862 -13.44547,1.61642 -27.04884,-2.2281 -56.99466,-16.1076 -118.6113,-15.1596 -201.73338,3.10375 -10.10625,2.22051 -39.90026,9.38377 -66.20891,15.91836 -85.42556,21.21813 -115.44009,27.0946 -155.90311,30.52393 -9.8148,0.83182 -49.39976,1.03933 -57.57786,0.30182 z m 3.10035,-50.61811 c 0,-5.23788 -3.20993,-16.73983 -6.59062,-23.61575 -9.801618,-19.93534 -32.50537,-34.92389 -52.980314,-34.97652 l -5.093426,-0.0131 v 23.90507 23.90507 l 3.100895,1.29563 c 9.317401,3.89306 33.047868,9.43177 49.455214,11.54288 13.118711,1.68797 12.108251,1.85848 12.108251,-2.04328 z m 480.99654,-77.20744 c 0,-23.84244 -0.21885,-29.23184 -1.18703,-29.23184 -3.68002,0 -15.92187,4.03052 -22.15849,7.29549 -10.04214,5.25721 -20.95271,16.14167 -25.9847,25.92251 -3.12468,6.07354 -6.937,16.34797 -6.25154,16.84826 0.12014,0.0877 5.00183,0.64918 10.8482,1.24775 11.21224,1.14795 34.48007,4.84873 38.97577,6.19914 6.22125,1.86874 5.75779,4.14518 5.75779,-28.28131 z m -255.84316,-0.48068 c 13.28986,-3.43693 25.28982,-10.81406 36.23831,-22.27797 36.17218,-37.87507 36.17218,-106.17165 0,-144.04672 C 357.22997,167.22799 341.21047,160.01666 320,160.01666 c -21.21047,0 -37.22997,7.21133 -53.2256,23.95998 -36.17218,37.87507 -36.17218,106.17165 0,144.04672 12.83955,13.444 26.5605,21.00075 43.03875,23.7034 6.2827,1.03044 20.57723,0.28062 27.17414,-1.42543 z M 66.473188,190.32212 c 20.922599,-6.40391 36.609962,-22.1902 43.215312,-43.48785 0.867,-2.79547 1.37248,-5.28656 1.12328,-5.53576 -0.2492,-0.2492 -6.79798,-1.0572 -14.552848,-1.79556 -15.016363,-1.42976 -31.765326,-3.92936 -41.148973,-6.14104 -3.149232,-0.74226 -6.224146,-1.35546 -6.833142,-1.36266 -0.864754,-0.0102 -1.107267,6.70702 -1.107267,30.66964 v 30.68274 l 6.6808,-0.60539 c 3.674441,-0.33298 9.354718,-1.42383 12.622838,-2.42412 z m 526.149602,-70.92225 -0.23525,-24.987669 -5.75837,-1.97512 c -12.2455,-4.200205 -22.1373,-6.392147 -47.74739,-10.58042 l -3.01442,-0.492977 0.55196,6.487708 c 1.86612,21.934558 17.91392,43.283818 38.97345,51.848528 4.43612,1.80412 13.37595,4.26297 16.78711,4.6172 0.37299,0.0387 0.5723,-11.17403 0.44291,-24.91725 z"
     id="path3806" />
</svg>
