<?xml version="1.0" encoding="UTF-8" standalone="no"?>
<svg
   xmlns:dc="http://purl.org/dc/elements/1.1/"
   xmlns:cc="http://creativecommons.org/ns#"
   xmlns:rdf="http://www.w3.org/1999/02/22-rdf-syntax-ns#"
   xmlns:svg="http://www.w3.org/2000/svg"
   xmlns="http://www.w3.org/2000/svg"
   xmlns:sodipodi="http://sodipodi.sourceforge.net/DTD/sodipodi-0.dtd"
   xmlns:inkscape="http://www.inkscape.org/namespaces/inkscape"
   aria-hidden="true"
   focusable="false"
   data-prefix="fas"
   data-icon="star"
   class="svg-inline--fa fa-star fa-w-18"
   role="img"
   viewBox="0 0 576 512"
   version="1.1"
   id="svg2654"
   sodipodi:docname="star-solid.svg"
   inkscape:version="1.0.1 (3bc2e813f5, 2020-09-07)">
  <metadata
     id="metadata2660">
    <rdf:RDF>
      <cc:Work
         rdf:about="">
        <dc:format>image/svg+xml</dc:format>
        <dc:type
           rdf:resource="http://purl.org/dc/dcmitype/StillImage" />
        <dc:title></dc:title>
      </cc:Work>
    </rdf:RDF>
  </metadata>
  <defs
     id="defs2658" />
  <sodipodi:namedview
     pagecolor="#ffffff"
     bordercolor="#666666"
     borderopacity="1"
     objecttolerance="10"
     gridtolerance="10"
     guidetolerance="10"
     inkscape:pageopacity="0"
     inkscape:pageshadow="2"
     inkscape:window-width="1298"
     inkscape:window-height="745"
     id="namedview2656"
     showgrid="false"
     inkscape:zoom="1.1289062"
     inkscape:cx="117.48097"
     inkscape:cy="256"
     inkscape:window-x="-8"
     inkscape:window-y="-8"
     inkscape:window-maximized="1"
     inkscape:current-layer="svg2654" />
  <path
     fill="currentColor"
     d="M259.3 17.8L194 150.2 47.9 171.5c-26.2 3.8-36.7 36.1-17.7 54.6l105.7 103-25 145.5c-4.5 26.3 23.2 46 46.4 33.7L288 439.6l130.7 68.7c23.2 12.2 50.9-7.4 46.4-33.7l-25-145.5 105.7-103c19-18.5 8.5-50.8-17.7-54.6L382 150.2 316.7 17.8c-11.7-23.6-45.6-23.9-57.4 0z"
     id="path2652" />
  <path
     style="fill:#0065fc;stroke-width:0.885813;fill-opacity:1"
     d="m 137.54507,511.05705 c -9.45137,-1.55558 -19.0403,-8.74762 -23.67191,-17.75476 -4.19674,-8.16141 -3.98748,-10.093 9.76486,-90.13915 6.89432,-40.12879 12.41521,-73.44348 12.26863,-74.03266 -0.14658,-0.58917 -24.62271,-24.82496 -54.391414,-53.85731 C 51.74654,246.24082 26.551551,221.06545 25.526373,219.3279 c -2.503758,-4.24355 -4.599037,-11.5484 -4.599037,-16.03378 0,-8.46318 5.129392,-19.30192 11.535796,-24.37588 7.178881,-5.68579 7.693359,-5.78858 86.598018,-17.30184 41.16593,-6.00667 75.12875,-11.24424 75.47295,-11.63905 0.3442,-0.39481 15.53349,-31.01264 33.75397,-68.039634 C 259.36575,18.782815 261.71847,14.309574 266.29942,9.6665494 272.478,3.404231 278.99708,0.71513414 288,0.71513414 c 9.00467,0 15.52293,2.68916176 21.6973,8.95141526 4.57404,4.6391316 6.95755,9.1692286 38.02544,72.2711666 18.23004,37.026994 33.41048,67.634504 33.73431,68.016694 0.32384,0.38219 33.44094,5.47775 73.59355,11.32348 40.15262,5.84572 75.00566,11.19773 77.45121,11.89336 6.01177,1.71003 12.39842,6.09694 16.02325,11.0062 3.46606,4.69421 6.5476,13.65946 6.5476,19.0492 0,4.76785 -2.21922,12.25279 -4.88481,16.47536 -1.14292,1.81049 -26.32177,26.94709 -55.95301,55.8591 -29.63124,28.91201 -53.99491,53.03378 -54.14149,53.60395 -0.14658,0.57016 5.33441,33.66998 12.17997,73.55517 6.88749,40.1295 12.44647,74.97638 12.44644,78.02163 -1e-4,14.61429 -11.62067,27.92955 -26.41599,30.26837 -10.18725,1.61039 -9.5904,1.8736 -82.19272,-36.24762 -37.0801,-19.46961 -67.72754,-35.39929 -68.10543,-35.39929 -0.37787,0 -30.38775,15.61245 -66.6886,34.69433 -36.30085,19.08188 -67.43887,35.17357 -69.19561,35.75932 -4.80733,1.60288 -9.7943,2.02715 -14.57634,1.24008 z"
     id="path2662" />
</svg>
